  0
SECTION
  2
HEADER
  9
$ACADVER
  1
AC1009
  9
$DWGCODEPAGE
  3
ansi_1251
  9
$INSBASE
 10
0.0
 20
0.0
 30
0.0
  9
$EXTMIN
 10
-170.0166237393
 20
-137.0730186191
 30
0.0
  9
$EXTMAX
 10
84.00000000000003
 20
73.1982313809
 30
0.0
  9
$LIMMIN
 10
0.0
 20
0.0
  9
$LIMMAX
 10
12.0
 20
9.0
  9
$ORTHOMODE
 70
     0
  9
$REGENMODE
 70
     1
  9
$FILLMODE
 70
     1
  9
$QTEXTMODE
 70
     0
  9
$MIRRTEXT
 70
     1
  9
$DRAGMODE
 70
     2
  9
$LTSCALE
 40
1.0
  9
$OSMODE
 70
    37
  9
$ATTMODE
 70
     1
  9
$TEXTSIZE
 40
0.2
  9
$TRACEWID
 40
0.05
  9
$TEXTSTYLE
  7
STANDARD
  9
$CLAYER
  8
DEFAULT
  9
$CELTYPE
  6
BYLAYER
  9
$CECOLOR
 62
   256
  9
$DIMSCALE
 40
1.0
  9
$DIMASZ
 40
0.18
  9
$DIMEXO
 40
0.0625
  9
$DIMDLI
 40
0.38
  9
$DIMRND
 40
0.0
  9
$DIMDLE
 40
0.0
  9
$DIMEXE
 40
0.18
  9
$DIMTP
 40
0.0
  9
$DIMTM
 40
0.0
  9
$DIMTXT
 40
0.18
  9
$DIMCEN
 40
0.09
  9
$DIMTSZ
 40
0.0
  9
$DIMTOL
 70
     0
  9
$DIMLIM
 70
     0
  9
$DIMTIH
 70
     1
  9
$DIMTOH
 70
     1
  9
$DIMSE1
 70
     0
  9
$DIMSE2
 70
     0
  9
$DIMTAD
 70
     0
  9
$DIMZIN
 70
     0
  9
$DIMBLK
  1

  9
$DIMASO
 70
     1
  9
$DIMSHO
 70
     1
  9
$DIMPOST
  1

  9
$DIMAPOST
  1

  9
$DIMALT
 70
     0
  9
$DIMALTD
 70
     2
  9
$DIMALTF
 40
25.4
  9
$DIMLFAC
 40
1.0
  9
$DIMTOFL
 70
     0
  9
$DIMTVP
 40
0.0
  9
$DIMTIX
 70
     0
  9
$DIMSOXD
 70
     0
  9
$DIMSAH
 70
     0
  9
$DIMBLK1
  1

  9
$DIMBLK2
  1

  9
$DIMSTYLE
  2
STANDARD
  9
$DIMCLRD
 70
     0
  9
$DIMCLRE
 70
     0
  9
$DIMCLRT
 70
     0
  9
$DIMTFAC
 40
1.0
  9
$DIMGAP
 40
0.09
  9
$LUNITS
 70
     2
  9
$LUPREC
 70
     2
  9
$SKETCHINC
 40
0.1
  9
$FILLETRAD
 40
0.5
  9
$AUNITS
 70
     0
  9
$AUPREC
 70
     0
  9
$MENU
  1
.
  9
$ELEVATION
 40
0.0
  9
$PELEVATION
 40
0.0
  9
$THICKNESS
 40
0.0
  9
$LIMCHECK
 70
     0
  9
$CHAMFERA
 40
0.0
  9
$CHAMFERB
 40
0.0
  9
$SKPOLY
 70
     0
  9
$TDCREATE
 40
2459298.582156771
  9
$TDUPDATE
 40
2459298.582171053
  9
$TDINDWG
 40
0.0000000116
  9
$TDUSRTIMER
 40
0.0000000116
  9
$USRTIMER
 70
     1
  9
$ANGBASE
 50
0.0
  9
$ANGDIR
 70
     0
  9
$PDMODE
 70
     0
  9
$PDSIZE
 40
0.0
  9
$PLINEWID
 40
0.0
  9
$COORDS
 70
     1
  9
$SPLFRAME
 70
     0
  9
$SPLINETYPE
 70
     6
  9
$SPLINESEGS
 70
     8
  9
$ATTDIA
 70
     0
  9
$ATTREQ
 70
     1
  9
$HANDLING
 70
     1
  9
$HANDSEED
  5
17D
  9
$SURFTAB1
 70
     6
  9
$SURFTAB2
 70
     6
  9
$SURFTYPE
 70
     6
  9
$SURFU
 70
     6
  9
$SURFV
 70
     6
  9
$UCSNAME
  2

  9
$UCSORG
 10
0.0
 20
0.0
 30
0.0
  9
$UCSXDIR
 10
1.0
 20
0.0
 30
0.0
  9
$UCSYDIR
 10
0.0
 20
1.0
 30
0.0
  9
$PUCSNAME
  2

  9
$PUCSORG
 10
0.0
 20
0.0
 30
0.0
  9
$PUCSXDIR
 10
1.0
 20
0.0
 30
0.0
  9
$PUCSYDIR
 10
0.0
 20
1.0
 30
0.0
  9
$USERI1
 70
     0
  9
$USERI2
 70
     0
  9
$USERI3
 70
     0
  9
$USERI4
 70
     0
  9
$USERI5
 70
     0
  9
$USERR1
 40
0.0
  9
$USERR2
 40
0.0
  9
$USERR3
 40
0.0
  9
$USERR4
 40
0.0
  9
$USERR5
 40
0.0
  9
$WORLDVIEW
 70
     1
  9
$SHADEDGE
 70
     3
  9
$SHADEDIF
 70
    70
  9
$TILEMODE
 70
     1
  9
$MAXACTVP
 70
    64
  9
$PLIMCHECK
 70
     0
  9
$PEXTMIN
 10
1.000000000000000E+20
 20
1.000000000000000E+20
 30
1.000000000000000E+20
  9
$PEXTMAX
 10
-1.000000000000000E+20
 20
-1.000000000000000E+20
 30
-1.000000000000000E+20
  9
$PLIMMIN
 10
0.0
 20
0.0
  9
$PLIMMAX
 10
12.0
 20
9.0
  9
$UNITMODE
 70
     0
  9
$VISRETAIN
 70
     1
  9
$PLINEGEN
 70
     0
  9
$PSLTSCALE
 70
     1
  0
ENDSEC
  0
SECTION
  2
TABLES
  0
TABLE
  2
VPORT
 70
     1
  0
VPORT
  2
*ACTIVE
 70
     0
 10
0.0
 20
0.0
 11
1.0
 21
1.0
 12
-43.00831186964999
 22
-31.60727998273636
 13
0.0
 23
0.0
 14
0.5
 24
0.5
 15
0.5
 25
0.5
 16
0.0
 26
0.0
 36
1.0
 17
0.0
 27
0.0
 37
0.0
 40
215.1501068181818
 41
1.204261341283194
 42
50.0
 43
0.0
 44
0.0
 50
0.0
 51
0.0
 71
     0
 72
   100
 73
     1
 74
     3
 75
     0
 76
     0
 77
     0
 78
     0
  0
ENDTAB
  0
TABLE
  2
LTYPE
 70
     2
  0
LTYPE
  2
CONTINUOUS
 70
     0
  3
Solid line
 72
    65
 73
     0
 40
0.0
  0
LTYPE
  2
CENTERX2
 70
     0
  3

 72
    65
 73
     4
 40
20.32
 49
12.7
 49
-2.54
 49
2.54
 49
-2.54
  0
ENDTAB
  0
TABLE
  2
LAYER
 70
     3
  0
LAYER
  2
0
 70
     0
 62
     7
  6
CONTINUOUS
  0
LAYER
  2
DEFAULT
 70
     0
 62
     7
  6
CONTINUOUS
  0
LAYER
  2
DEFPOINTS
 70
     0
 62
     7
  6
CONTINUOUS
  0
ENDTAB
  0
TABLE
  2
STYLE
 70
     2
  0
STYLE
  2
STANDARD
 70
     0
 40
0.0
 41
1.0
 50
0.0
 71
     0
 42
0.2
  3
txt
  4

  0
STYLE
  2
DEFAULT
 70
     0
 40
0.0
 41
1.0
 50
0.0
 71
     0
 42
0.2
  3
arial.ttf
  4

  0
ENDTAB
  0
TABLE
  2
VIEW
 70
     0
  0
ENDTAB
  0
TABLE
  2
UCS
 70
     0
  0
ENDTAB
  0
TABLE
  2
APPID
 70
     1
  0
APPID
  2
ACAD
 70
     0
  0
ENDTAB
  0
TABLE
  2
DIMSTYLE
 70
     2
  0
DIMSTYLE
  2
STANDARD
 70
     0
  3

  4

  5

  6

  7

 40
1.0
 41
0.18
 42
0.0625
 43
0.38
 44
0.18
 45
0.0
 46
0.0
 47
0.0
 48
0.0
140
0.18
141
0.09
142
0.0
143
25.4
144
1.0
145
0.0
146
1.0
147
0.09
 71
     0
 72
     0
 73
     1
 74
     1
 75
     0
 76
     0
 77
     0
 78
     0
170
     0
171
     2
172
     0
173
     0
174
     0
175
     0
176
     0
177
     0
178
     0
  0
DIMSTYLE
  2
ISO-25
 70
     0
  3

  4

  5

  6

  7

 40
1.0
 41
2.5
 42
0.625
 43
0.38
 44
1.25
 45
0.0
 46
0.0
 47
0.0
 48
0.0
140
2.5
141
2.5
142
0.0
143
25.4
144
1.0
145
0.0
146
1.0
147
0.625
 71
     0
 72
     0
 73
     0
 74
     1
 75
     0
 76
     0
 77
     1
 78
     1
170
     0
171
     2
172
     1
173
     0
174
     1
175
     0
176
     0
177
     0
178
     0
  0
ENDTAB
  0
ENDSEC
  0
SECTION
  2
BLOCKS
  0
BLOCK
  8
0
  2
$MODEL_SPACE
 70
     0
 10
0.0
 20
0.0
 30
0.0
  3
$MODEL_SPACE
  1

  0
ENDBLK
  5
21
  8
0
  0
BLOCK
 67
     1
  8
0
  2
$PAPER_SPACE
 70
     0
 10
0.0
 20
0.0
 30
0.0
  3
$PAPER_SPACE
  1

  0
ENDBLK
  5
1D
 67
     1
  8
0
  0
BLOCK
  8
0
  2
*D1
 70
     1
 10
0.0
 20
0.0
 30
0.0
  3
*D1
  1

  0
LINE
  5
76
  8
DEFAULT
 62
     0
 10
-141.625
 20
-115.0685834706
 30
0.0
 11
-148.0166237393
 21
-115.0685834706
 31
0.0
  0
LINE
  5
77
  8
DEFAULT
 62
     0
 10
-148.0166237393
 20
-115.0685834706
 30
0.0
 11
-153.0166237393
 21
-125.0730186191
 31
0.0
  0
LINE
  5
78
  8
DEFAULT
 62
     0
 10
-153.0166237393
 20
-125.0730186191
 30
0.0
 11
-158.0166237393
 21
-125.0730186191
 31
0.0
  0
TEXT
  5
79
  8
DEFAULT
  6
CONTINUOUS
 62
     0
 10
-168.9741237393
 20
-126.3017686191
 30
0.0
 40
2.5
  1
4 x M5
  7
DEFAULT
  0
POINT
  5
7A
  8
DEFPOINTS
 62
     0
 10
-141.0
 20
-115.0685834706
 30
0.0
  0
POINT
  5
7B
  8
DEFPOINTS
 62
     0
 10
-158.0166237393
 20
-125.0730186191
 30
0.0
  0
POINT
  5
7C
  8
DEFPOINTS
 62
     0
 10
-170.0166237393
 20
-137.0730186191
 30
0.0
  0
ENDBLK
  5
75
  8
0
  0
BLOCK
  8
0
  2
*D2
 70
     1
 10
0.0
 20
0.0
 30
0.0
  3
*D2
  1

  0
LINE
  5
81
  8
DEFAULT
 62
     0
 10
-141.5917525214
 20
60.0685834706
 30
0.0
 11
-148.9833762607
 21
60.0685834706
 31
0.0
  0
LINE
  5
82
  8
DEFAULT
 62
     0
 10
-148.9833762607
 20
60.0685834706
 30
0.0
 11
-153.9833762607
 21
71.9269813809
 31
0.0
  0
LINE
  5
83
  8
DEFAULT
 62
     0
 10
-153.9833762607
 20
71.9269813809
 30
0.0
 11
-158.9833762607
 21
71.9269813809
 31
0.0
  0
TEXT
  5
84
  8
DEFAULT
  6
CONTINUOUS
 62
     0
 10
-169.9408762607
 20
70.6982313809
 30
0.0
 40
2.5
  1
4 x M5
  7
DEFAULT
  0
POINT
  5
85
  8
DEFPOINTS
 62
     0
 10
-140.9667525214
 20
60.0685834706
 30
0.0
  0
POINT
  5
86
  8
DEFPOINTS
 62
     0
 10
-158.9833762607
 20
71.9269813809
 30
0.0
  0
POINT
  5
87
  8
DEFPOINTS
 62
     0
 10
-169.9833762607
 20
-137.0730186191
 30
0.0
  0
ENDBLK
  5
80
  8
0
  0
BLOCK
  8
0
  2
*D3
 70
     1
 10
0.0
 20
0.0
 30
0.0
  3
*D3
  1

  0
LINE
  5
90
  8
DEFAULT
 62
     0
 10
-30.625
 20
0.0
 30
0.0
 11
-40.0166237393
 21
0.0
 31
0.0
  0
LINE
  5
91
  8
DEFAULT
 62
     0
 10
-40.0166237393
 20
0.0
 30
0.0
 11
-45.0166237393
 21
-14.0730186191
 31
0.0
  0
LINE
  5
92
  8
DEFAULT
 62
     0
 10
-45.0166237393
 20
-14.0730186191
 30
0.0
 11
-50.0166237393
 21
-14.0730186191
 31
0.0
  0
TEXT
  5
93
  8
DEFAULT
  6
CONTINUOUS
 62
     0
 10
-60.9466237393
 20
-15.3017686191
 30
0.0
 40
2.5
  1
6 x M4
  7
DEFAULT
  0
POINT
  5
94
  8
DEFPOINTS
 62
     0
 10
-30.0
 20
0.0
 30
0.0
  0
POINT
  5
95
  8
DEFPOINTS
 62
     0
 10
-50.0166237393
 20
-14.0730186191
 30
0.0
  0
POINT
  5
96
  8
DEFPOINTS
 62
     0
 10
-107.0166237393
 20
-137.0730186191
 30
0.0
  0
ENDBLK
  5
8F
  8
0
  0
BLOCK
  8
0
  2
_D0
 70
     0
 10
0.0
 20
0.0
 30
0.0
  3
_D0
  1

  0
LINE
  5
FC
  8
DEFAULT
 62
     0
 10
135.4082474786
 20
-115.0685834706
 30
0.0
 11
129.0166237393
 21
-115.0685834706
 31
0.0
  0
LINE
  5
FD
  8
DEFAULT
 62
     0
 10
129.0166237393
 20
-115.0685834706
 30
0.0
 11
124.0166237393
 21
-125.0730186191
 31
0.0
  0
LINE
  5
FE
  8
DEFAULT
 62
     0
 10
124.0166237393
 20
-125.0730186191
 30
0.0
 11
119.0166237393
 21
-125.0730186191
 31
0.0
  0
TEXT
  5
FF
  8
DEFAULT
  6
CONTINUOUS
 62
     0
 10
108.0141237393
 20
-126.2184352857667
 30
0.0
 40
2.5
  1
4 x M5
  0
POINT
  5
100
  8
DEFPOINTS
 62
     0
 10
136.0332474786
 20
-115.0685834706
 30
0.0
  0
POINT
  5
101
  8
DEFPOINTS
 62
     0
 10
119.0166237393
 20
-125.0730186191
 30
0.0
  0
POINT
  5
102
  8
DEFPOINTS
 62
     0
 10
107.0166237393
 20
-137.0730186191
 30
0.0
  0
ENDBLK
  5
104
  8
0
  0
BLOCK
  8
0
  2
_D1
 70
     0
 10
0.0
 20
0.0
 30
0.0
  3
_D1
  1

  0
LINE
  5
106
  8
DEFAULT
 62
     0
 10
183.4082474786
 20
0.0
 30
0.0
 11
174.0166237393
 21
0.0
 31
0.0
  0
LINE
  5
107
  8
DEFAULT
 62
     0
 10
174.0166237393
 20
0.0
 30
0.0
 11
169.0166237393
 21
-14.0730186191
 31
0.0
  0
LINE
  5
108
  8
DEFAULT
 62
     0
 10
169.0166237393
 20
-14.0730186191
 30
0.0
 11
164.0166237393
 21
-14.0730186191
 31
0.0
  0
TEXT
  5
109
  8
DEFAULT
  6
CONTINUOUS
 62
     0
 10
152.9566237393
 20
-15.21843528576667
 30
0.0
 40
2.5
  1
6 x M4
  0
POINT
  5
10A
  8
DEFPOINTS
 62
     0
 10
184.0332474786
 20
0.0
 30
0.0
  0
POINT
  5
10B
  8
DEFPOINTS
 62
     0
 10
164.0166237393
 20
-14.0730186191
 30
0.0
  0
POINT
  5
10C
  8
DEFPOINTS
 62
     0
 10
107.0166237393
 20
-137.0730186191
 30
0.0
  0
ENDBLK
  5
10E
  8
0
  0
BLOCK
  8
0
  2
_D2
 70
     0
 10
0.0
 20
0.0
 30
0.0
  3
_D2
  1

  0
LINE
  5
110
  8
DEFAULT
 62
     0
 10
135.4082474786
 20
60.0685834706
 30
0.0
 11
128.0166237393
 21
60.0685834706
 31
0.0
  0
LINE
  5
111
  8
DEFAULT
 62
     0
 10
128.0166237393
 20
60.0685834706
 30
0.0
 11
123.0166237393
 21
71.9269813809
 31
0.0
  0
LINE
  5
112
  8
DEFAULT
 62
     0
 10
123.0166237393
 20
71.9269813809
 30
0.0
 11
118.0166237393
 21
71.9269813809
 31
0.0
  0
TEXT
  5
113
  8
DEFAULT
  6
CONTINUOUS
 62
     0
 10
107.0141237393
 20
70.78156471423333
 30
0.0
 40
2.5
  1
4 x M5
  0
POINT
  5
114
  8
DEFPOINTS
 62
     0
 10
136.0332474786
 20
60.0685834706
 30
0.0
  0
POINT
  5
115
  8
DEFPOINTS
 62
     0
 10
118.0166237393
 20
71.9269813809
 30
0.0
  0
POINT
  5
116
  8
DEFPOINTS
 62
     0
 10
107.0166237393
 20
-137.0730186191
 30
0.0
  0
ENDBLK
  5
118
  8
0
  0
BLOCK
  8
0
  2
_D3
 70
     0
 10
0.0
 20
0.0
 30
0.0
  3
_D3
  1

  0
LINE
  5
11A
  8
DEFAULT
 62
     0
 10
-78.625
 20
60.0685834706
 30
0.0
 11
-86.0166237393
 21
60.0685834706
 31
0.0
  0
LINE
  5
11B
  8
DEFAULT
 62
     0
 10
-86.0166237393
 20
60.0685834706
 30
0.0
 11
-91.0166237393
 21
71.9269813809
 31
0.0
  0
LINE
  5
11C
  8
DEFAULT
 62
     0
 10
-91.0166237393
 20
71.9269813809
 30
0.0
 11
-96.0166237393
 21
71.9269813809
 31
0.0
  0
TEXT
  5
11D
  8
DEFAULT
  6
CONTINUOUS
 62
     0
 10
-107.0191237393
 20
70.78156471423333
 30
0.0
 40
2.5
  1
4 x M5
  0
POINT
  5
11E
  8
DEFPOINTS
 62
     0
 10
-78.0
 20
60.0685834706
 30
0.0
  0
POINT
  5
11F
  8
DEFPOINTS
 62
     0
 10
-96.0166237393
 20
71.9269813809
 30
0.0
  0
POINT
  5
120
  8
DEFPOINTS
 62
     0
 10
-107.0166237393
 20
-137.0730186191
 30
0.0
  0
ENDBLK
  5
122
  8
0
  0
BLOCK
  8
0
  2
_D4
 70
     0
 10
0.0
 20
0.0
 30
0.0
  3
_D4
  1

  0
LINE
  5
124
  8
DEFAULT
 62
     0
 10
-30.625
 20
0.0
 30
0.0
 11
-40.0166237393
 21
0.0
 31
0.0
  0
LINE
  5
125
  8
DEFAULT
 62
     0
 10
-40.0166237393
 20
0.0
 30
0.0
 11
-45.0166237393
 21
-14.0730186191
 31
0.0
  0
LINE
  5
126
  8
DEFAULT
 62
     0
 10
-45.0166237393
 20
-14.0730186191
 30
0.0
 11
-50.0166237393
 21
-14.0730186191
 31
0.0
  0
TEXT
  5
127
  8
DEFAULT
  6
CONTINUOUS
 62
     0
 10
-61.0766237393
 20
-15.21843528576667
 30
0.0
 40
2.5
  1
6 x M4
  0
POINT
  5
128
  8
DEFPOINTS
 62
     0
 10
-30.0
 20
0.0
 30
0.0
  0
POINT
  5
129
  8
DEFPOINTS
 62
     0
 10
-50.0166237393
 20
-14.0730186191
 30
0.0
  0
POINT
  5
12A
  8
DEFPOINTS
 62
     0
 10
-107.0166237393
 20
-137.0730186191
 30
0.0
  0
ENDBLK
  5
12C
  8
0
  0
BLOCK
  8
0
  2
_D5
 70
     0
 10
0.0
 20
0.0
 30
0.0
  3
_D5
  1

  0
LINE
  5
12E
  8
DEFAULT
 62
     0
 10
-78.625
 20
-115.0685834706
 30
0.0
 11
-85.0166237393
 21
-115.0685834706
 31
0.0
  0
LINE
  5
12F
  8
DEFAULT
 62
     0
 10
-85.0166237393
 20
-115.0685834706
 30
0.0
 11
-90.0166237393
 21
-125.0730186191
 31
0.0
  0
LINE
  5
130
  8
DEFAULT
 62
     0
 10
-90.0166237393
 20
-125.0730186191
 30
0.0
 11
-95.0166237393
 21
-125.0730186191
 31
0.0
  0
TEXT
  5
131
  8
DEFAULT
  6
CONTINUOUS
 62
     0
 10
-106.0191237393
 20
-126.2184352857667
 30
0.0
 40
2.5
  1
4 x M5
  0
POINT
  5
132
  8
DEFPOINTS
 62
     0
 10
-78.0
 20
-115.0685834706
 30
0.0
  0
POINT
  5
133
  8
DEFPOINTS
 62
     0
 10
-95.0166237393
 20
-125.0730186191
 30
0.0
  0
POINT
  5
134
  8
DEFPOINTS
 62
     0
 10
-107.0166237393
 20
-137.0730186191
 30
0.0
  0
ENDBLK
  5
136
  8
0
  0
BLOCK
  8
0
  2
_D
 70
     0
 10
0.0
 20
0.0
 30
0.0
  3
_D
  1

  0
LINE
  5
138
  8
0
  6
CONTINUOUS
 62
     7
 10
93.4455656556
 20
110.2672565056
 30
0.0
 11
96.2074237996
 21
108.0509351343
 31
0.0
  0
LINE
  5
139
  8
0
  6
CONTINUOUS
 62
     7
 10
96.2074237996
 20
108.0509351343
 30
0.0
 11
96.7458853381
 21
108.9835778768
 31
0.0
  0
LINE
  5
13A
  8
0
  6
CONTINUOUS
 62
     7
 10
96.7458853381
 20
108.9835778768
 30
0.0
 11
93.4455656556
 21
110.2672565056
 31
0.0
  0
LINE
  5
13B
  8
0
  6
CONTINUOUS
 62
     7
 10
95.09572549685
 20
109.6254171912
 30
0.0
 11
96.47665456884998
 21
108.51725650555
 31
0.0
  0
LINE
  5
13C
  8
0
  6
CONTINUOUS
 62
     7
 10
94.8264947276
 20
109.15909581995
 30
0.0
 11
95.17573324670653
 21
109.5942977092984
 31
0.0
  0
LINE
  5
13D
  8
0
  6
CONTINUOUS
 62
     7
 10
90.5876818231
 20
111.9172565056
 30
0.0
 11
87.8258236791
 21
114.1335778768
 31
0.0
  0
LINE
  5
13E
  8
0
  6
CONTINUOUS
 62
     7
 10
87.8258236791
 20
114.1335778768
 30
0.0
 11
87.2873621406
 21
113.2009351343
 31
0.0
  0
LINE
  5
13F
  8
0
  6
CONTINUOUS
 62
     7
 10
87.2873621406
 20
113.2009351343
 30
0.0
 11
90.5876818231
 21
111.9172565056
 31
0.0
  0
LINE
  5
140
  8
0
  6
CONTINUOUS
 62
     7
 10
88.93752198185
 20
112.55909581995
 30
0.0
 11
87.55659290985
 21
113.66725650555
 31
0.0
  0
LINE
  5
141
  8
0
  6
CONTINUOUS
 62
     7
 10
89.2067527511
 20
113.0254171912
 30
0.0
 11
88.85751423200398
 21
112.5902153018451
 31
0.0
  0
LINE
  5
142
  8
0
  6
CONTINUOUS
 62
     7
 10
93.4455656556
 20
110.2672565056
 30
0.0
 11
99.2745827964
 21
106.9018718902
 31
0.0
  0
LINE
  5
143
  8
0
  6
CONTINUOUS
 62
     7
 10
90.5876818231
 20
111.9172565056
 30
0.0
 11
79.7023493377
 21
118.2019061462
 31
0.0
  0
LINE
  5
144
  8
0
  6
CONTINUOUS
 62
     7
 10
93.4455656556
 20
110.2672565056
 30
0.0
 11
90.5876818231
 21
111.9172565056
 31
0.0
  0
LINE
  5
145
  8
0
  6
CONTINUOUS
 62
     7
 10
79.7023493377
 20
118.2019061462
 30
0.0
 11
28.8609541203
 21
118.2019061462
 31
0.0
  0
TEXT
  5
146
  8
0
  6
CONTINUOUS
 62
     7
 10
28.4969541203
 20
124.7115599575667
 30
0.0
 40
3.5
  1
6 x
  0
TEXT
  5
147
  8
0
  6
CONTINUOUS
 62
     7
 10
36.2224259642
 20
124.7018376483667
 30
0.0
 40
3.5
  1
\U+00D8
  0
TEXT
  5
148
  8
0
  6
CONTINUOUS
 62
     7
 10
42.6168779751
 20
124.7115599575667
 30
0.0
 40
3.5
  1
3,30 Õ¿— ¬Œ«‹
  0
TEXT
  5
149
  8
0
  6
CONTINUOUS
 62
     7
 10
31.360124677
 20
119.3303101349667
 30
0.0
 40
3.5
  1
M4 - 6H Õ¿— ¬Œ«‹
  0
ENDBLK
  5
14B
  8
0
  0
BLOCK
  8
0
  2
_D_1
 70
     0
 10
0.0
 20
0.0
 30
0.0
  3
_D_1
  1

  0
LINE
  5
14D
  8
0
  6
CONTINUOUS
 62
     7
 10
30.5015479798
 20
23.489359389
 30
0.0
 11
33.3571715192
 21
25.5834833179
 31
0.0
  0
LINE
  5
14E
  8
0
  6
CONTINUOUS
 62
     7
 10
33.3571715192
 20
25.5834833179
 30
0.0
 11
32.5956719087
 21
26.3449829284
 31
0.0
  0
LINE
  5
14F
  8
0
  6
CONTINUOUS
 62
     7
 10
32.5956719087
 20
26.3449829284
 30
0.0
 11
30.5015479798
 21
23.489359389
 31
0.0
  0
LINE
  5
150
  8
0
  6
CONTINUOUS
 62
     7
 10
31.54860994425
 20
24.9171711587
 30
0.0
 11
32.97642171395001
 21
25.96423312315
 31
0.0
  0
LINE
  5
151
  8
0
  6
CONTINUOUS
 62
     7
 10
31.9293597495
 20
24.53642135345
 30
0.0
 11
31.59937658494956
 21
24.98639839601736
 31
0.0
  0
LINE
  5
152
  8
0
  6
CONTINUOUS
 62
     7
 10
27.5316994988
 20
20.519510908
 30
0.0
 11
24.6760759594
 21
18.4253869791
 31
0.0
  0
LINE
  5
153
  8
0
  6
CONTINUOUS
 62
     7
 10
24.6760759594
 20
18.4253869791
 30
0.0
 11
25.4375755699
 21
17.6638873686
 31
0.0
  0
LINE
  5
154
  8
0
  6
CONTINUOUS
 62
     7
 10
25.4375755699
 20
17.6638873686
 30
0.0
 11
27.5316994988
 21
20.519510908
 31
0.0
  0
LINE
  5
155
  8
0
  6
CONTINUOUS
 62
     7
 10
26.48463753435
 20
19.0916991383
 30
0.0
 11
25.05682576465
 21
18.04463717385
 31
0.0
  0
LINE
  5
156
  8
0
  6
CONTINUOUS
 62
     7
 10
26.1038877291
 20
19.47244894355
 30
0.0
 11
26.43387089365044
 21
19.02247190098264
 31
0.0
  0
LINE
  5
157
  8
0
  6
CONTINUOUS
 62
     7
 10
30.5015479798
 20
23.489359389
 30
0.0
 11
35.2609205455
 21
28.2487319547
 31
0.0
  0
LINE
  5
158
  8
0
  6
CONTINUOUS
 62
     7
 10
27.5316994988
 20
20.519510908
 30
0.0
 11
13.066258623
 21
6.0540700322
 31
0.0
  0
LINE
  5
159
  8
0
  6
CONTINUOUS
 62
     7
 10
30.5015479798
 20
23.489359389
 30
0.0
 11
27.5316994988
 21
20.519510908
 31
0.0
  0
LINE
  5
15A
  8
0
  6
CONTINUOUS
 62
     7
 10
13.066258623
 20
6.0540700322
 30
0.0
 11
-37.7751365944
 21
6.0540700322
 31
0.0
  0
TEXT
  5
15B
  8
0
  6
CONTINUOUS
 62
     7
 10
-37.90113659440001
 20
12.56372384356667
 30
0.0
 40
3.5
  1
4 x
  0
TEXT
  5
15C
  8
0
  6
CONTINUOUS
 62
     7
 10
-30.4136647505
 20
12.55400153436667
 30
0.0
 40
3.5
  1
\U+00D8
  0
TEXT
  5
15D
  8
0
  6
CONTINUOUS
 62
     7
 10
-23.7322127396
 20
12.56372384356667
 30
0.0
 40
3.5
  1
4,20 Õ¿— ¬Œ«‹
  0
TEXT
  5
15E
  8
0
  6
CONTINUOUS
 62
     7
 10
-35.2759660376
 20
7.182474020866668
 30
0.0
 40
3.5
  1
M5 - 6H Õ¿— ¬Œ«‹
  0
ENDBLK
  5
160
  8
0
  0
BLOCK
  8
0
  2
_D_2
 70
     0
 10
0.0
 20
0.0
 30
0.0
  3
_D_2
  1

  0
LINE
  5
162
  8
0
  6
CONTINUOUS
 62
     7
 10
31.0450679745
 20
196.5980820949
 30
0.0
 11
34.2864442653
 21
195.1721015306
 31
0.0
  0
LINE
  5
163
  8
0
  6
CONTINUOUS
 62
     7
 10
34.2864442653
 20
195.1721015306
 30
0.0
 11
34.5651724678
 21
196.2123293436
 31
0.0
  0
LINE
  5
164
  8
0
  6
CONTINUOUS
 62
     7
 10
34.5651724678
 20
196.2123293436
 30
0.0
 11
31.0450679745
 21
196.5980820949
 31
0.0
  0
LINE
  5
165
  8
0
  6
CONTINUOUS
 62
     7
 10
32.80512022115001
 20
196.40520571925
 30
0.0
 11
34.42580836655001
 21
195.6922154371
 31
0.0
  0
LINE
  5
166
  8
0
  6
CONTINUOUS
 62
     7
 10
32.6657561199
 20
195.88509181275
 30
0.0
 11
32.89045608762656
 21
196.3958541374034
 31
0.0
  0
LINE
  5
167
  8
0
  6
CONTINUOUS
 62
     7
 10
26.9881795041
 20
197.6851220844
 30
0.0
 11
23.7468032133
 21
199.1111026487
 31
0.0
  0
LINE
  5
168
  8
0
  6
CONTINUOUS
 62
     7
 10
23.7468032133
 20
199.1111026487
 30
0.0
 11
23.4680750109
 21
198.0708748358
 31
0.0
  0
LINE
  5
169
  8
0
  6
CONTINUOUS
 62
     7
 10
23.4680750109
 20
198.0708748358
 30
0.0
 11
26.9881795041
 21
197.6851220844
 31
0.0
  0
LINE
  5
16A
  8
0
  6
CONTINUOUS
 62
     7
 10
25.2281272575
 20
197.8779984601
 30
0.0
 11
23.6074391121
 21
198.59098874225
 31
0.0
  0
LINE
  5
16B
  8
0
  6
CONTINUOUS
 62
     7
 10
25.3674913587
 20
198.39811236655
 30
0.0
 11
25.14279139099786
 21
197.8873500419522
 31
0.0
  0
LINE
  5
16C
  8
0
  6
CONTINUOUS
 62
     7
 10
31.0450679745
 20
196.5980820949
 30
0.0
 11
37.5464918053
 21
194.8560308298
 31
0.0
  0
LINE
  5
16D
  8
0
  6
CONTINUOUS
 62
     7
 10
26.9881795041
 20
197.6851220844
 30
0.0
 11
13.066258623
 21
201.4154895416
 31
0.0
  0
LINE
  5
16E
  8
0
  6
CONTINUOUS
 62
     7
 10
31.0450679745
 20
196.5980820949
 30
0.0
 11
26.9881795041
 21
197.6851220844
 31
0.0
  0
LINE
  5
16F
  8
0
  6
CONTINUOUS
 62
     7
 10
13.066258623
 20
201.4154895416
 30
0.0
 11
-37.7751365944
 21
201.4154895416
 31
0.0
  0
TEXT
  5
170
  8
0
  6
CONTINUOUS
 62
     7
 10
-37.90113659440001
 20
207.9251433529666
 30
0.0
 40
3.5
  1
4 x
  0
TEXT
  5
171
  8
0
  6
CONTINUOUS
 62
     7
 10
-30.4136647505
 20
207.9154210437667
 30
0.0
 40
3.5
  1
\U+00D8
  0
TEXT
  5
172
  8
0
  6
CONTINUOUS
 62
     7
 10
-23.7322127396
 20
207.9251433529666
 30
0.0
 40
3.5
  1
4,20 Õ¿— ¬Œ«‹
  0
TEXT
  5
173
  8
0
  6
CONTINUOUS
 62
     7
 10
-35.2759660376
 20
202.5438935302666
 30
0.0
 40
3.5
  1
M5 - 6H Õ¿— ¬Œ«‹
  0
ENDBLK
  5
175
  8
0
  0
ENDSEC
  0
SECTION
  2
ENTITIES
  0
DIMENSION
  5
71
  8
DEFAULT
  2
*D1
 10
-170.0166237393
 20
-137.0730186191
 30
0.0
 11
-163.7853737393
 21
-125.0730186191
 31
0.0
 70
    38
  1
4 x M5
  3
ISO-25
 13
-141.0
 23
-115.0685834706
 33
0.0
 14
-158.0166237393
 24
-125.0730186191
 34
0.0
1001
ACAD
1000
DSTYLE
1002
{
1070
    77
1070
     0
1002
}
  0
DIMENSION
  5
7D
  8
DEFAULT
  2
*D2
 10
-169.9833762607
 20
-137.0730186191
 30
0.0
 11
-164.7521262607
 21
71.9269813809
 31
0.0
 70
    38
  1
4 x M5
  3
ISO-25
 13
-140.9667525214
 23
60.0685834706
 33
0.0
 14
-158.9833762607
 24
71.9269813809
 34
0.0
1001
ACAD
1000
DSTYLE
1002
{
1070
    77
1070
     0
1002
}
  0
LINE
  5
88
  8
0
  6
CONTINUOUS
 62
     7
 10
78.0
 20
-121.0685834706
 30
0.0
 11
-142.0
 21
-121.0685834706
 31
0.0
  0
CIRCLE
  5
89
  8
0
  6
CONTINUOUS
 62
     7
 10
-15.0
 20
-25.98076211349999
 30
0.0
 40
1.650000000000006
  0
CIRCLE
  5
8A
  8
0
  6
CONTINUOUS
 62
     7
 10
78.0
 20
60.0685834706
 30
0.0
 40
2.099999999999994
  0
ARC
  5
8B
  8
0
  6
CONTINUOUS
 62
     7
 10
78.0
 20
60.0685834706
 30
0.0
 40
2.500000000000008
 50
345.0
 51
284.9999999999998
  0
DIMENSION
  5
8C
  8
DEFAULT
  2
*D3
 10
-107.0166237393
 20
-137.0730186191
 30
0.0
 11
-55.7291237393
 21
-14.0730186191
 31
0.0
 70
    38
  1
6 x M4
  3
ISO-25
 13
-30.0
 23
0.0
 33
0.0
 14
-50.0166237393
 24
-14.0730186191
 34
0.0
1001
ACAD
1000
DSTYLE
1002
{
1070
    77
1070
     0
1002
}
  0
ARC
  5
97
  8
0
  6
CONTINUOUS
 62
     7
 10
41.0
 20
60.0685834706
 30
0.0
 40
2.500000000000007
 50
255.0000000000002
 51
195.0000000000001
  0
ARC
  5
98
  8
0
  6
CONTINUOUS
 62
     7
 10
-41.0
 20
60.0685834706
 30
0.0
 40
2.500000000000007
 50
254.9999999999999
 51
194.9999999999996
  0
ARC
  5
99
  8
0
  6
CONTINUOUS
 62
     7
 10
-30.0
 20
0.0
 30
0.0
 40
2.000000000000022
 50
254.9999999999998
 51
194.9999999999998
  0
LINE
  5
9A
  8
0
  6
CONTINUOUS
 62
     7
 10
-41.0
 20
66.0685834706
 30
0.0
 11
-78.0
 21
66.0685834706
 31
0.0
  0
CIRCLE
  5
9B
  8
0
  6
CONTINUOUS
 62
     7
 10
-15.0
 20
25.98076211349999
 30
0.0
 40
1.650000000000006
  0
CIRCLE
  5
9C
  8
0
  6
CONTINUOUS
 62
     7
 10
15.0
 20
-25.98076211349999
 30
0.0
 40
1.650000000000006
  0
CIRCLE
  5
9D
  8
0
  6
CONTINUOUS
 62
     7
 10
30.0
 20
0.0
 30
0.0
 40
1.650000000000034
  0
LINE
  5
9E
  8
0
  6
CONTINUOUS
 62
     7
 10
-47.0
 20
-99.0
 30
0.0
 11
47.0
 21
-99.0
 31
0.0
  0
ARC
  5
9F
  8
0
  6
CONTINUOUS
 62
     7
 10
-47.0
 20
-96.0
 30
0.0
 40
3.000000000000007
 50
180.0
 51
270.0
  0
LINE
  5
A0
  8
0
  6
CONTINUOUS
 62
     7
 10
-50.0
 20
-44.0
 30
0.0
 11
-50.0
 21
-96.0
 31
0.0
  0
ARC
  5
A1
  8
0
  6
CONTINUOUS
 62
     7
 10
-47.0
 20
-44.0
 30
0.0
 40
3.0
 50
90.0
 51
180.0
  0
LINE
  5
A2
  8
0
  6
CONTINUOUS
 62
     7
 10
47.0
 20
-41.0
 30
0.0
 11
-47.0
 21
-41.0
 31
0.0
  0
ARC
  5
A3
  8
0
  6
CONTINUOUS
 62
     7
 10
47.0
 20
-44.0
 30
0.0
 40
3.0
 50
0.0
 51
90.0
  0
LINE
  5
A4
  8
0
  6
CONTINUOUS
 62
     7
 10
50.0
 20
-96.0
 30
0.0
 11
50.0
 21
-44.0
 31
0.0
  0
ARC
  5
A5
  8
0
  6
CONTINUOUS
 62
     7
 10
47.0
 20
-96.0
 30
0.0
 40
3.000000000000007
 50
270.0
 51
0.0
  0
LINE
  5
A6
  8
0
  6
CONTINUOUS
 62
     7
 10
-31.0
 20
41.0
 30
0.0
 11
31.0
 21
41.0
 31
0.0
  0
ARC
  5
A7
  8
0
  6
CONTINUOUS
 62
     7
 10
-31.0
 20
45.0
 30
0.0
 40
4.000000000000014
 50
180.0
 51
270.0
  0
LINE
  5
A8
  8
0
  6
CONTINUOUS
 62
     7
 10
-35.0
 20
60.0685834706
 30
0.0
 11
-35.0
 21
45.0
 31
0.0
  0
ARC
  5
A9
  8
0
  6
CONTINUOUS
 62
     7
 10
-41.0
 20
60.0685834706
 30
0.0
 40
6.0
 50
0.0
 51
90.0
  0
ARC
  5
AA
  8
0
  6
CONTINUOUS
 62
     7
 10
41.0
 20
60.0685834706
 30
0.0
 40
6.0
 50
90.0
 51
180.0
  0
LINE
  5
AB
  8
0
  6
CONTINUOUS
 62
     7
 10
35.0
 20
60.0685834706
 30
0.0
 11
35.0
 21
45.0
 31
0.0
  0
ARC
  5
AC
  8
0
  6
CONTINUOUS
 62
     7
 10
31.0
 20
45.0
 30
0.0
 40
4.0
 50
270.0
 51
0.0
  0
CIRCLE
  5
AD
  8
0
  6
CONTINUOUS
 62
     7
 10
0.0
 20
0.0
 30
0.0
 40
25.00000000000001
  0
CIRCLE
  5
AE
  8
0
  6
CONTINUOUS
 62
     7
 10
41.0
 20
-115.0685834706
 30
0.0
 40
2.099999999999977
  0
CIRCLE
  5
AF
  8
0
  6
CONTINUOUS
 62
     7
 10
-41.0
 20
-115.0685834706
 30
0.0
 40
2.099999999999977
  0
CIRCLE
  5
B0
  8
0
  6
CONTINUOUS
 62
     7
 10
-41.0
 20
60.0685834706
 30
0.0
 40
2.099999999999994
  0
CIRCLE
  5
B1
  8
0
  6
CONTINUOUS
 62
     7
 10
41.0
 20
60.0685834706
 30
0.0
 40
2.099999999999994
  0
LINE
  5
B3
  8
0
  6
CENTERX2
 62
     7
 10
-35.0
 20
50.5342917353
 30
0.0
 11
-84.0
 21
50.5342917353
 31
0.0
  0
LINE
  5
B4
  8
0
  6
CENTERX2
 62
     7
 10
84.0
 20
-105.5342917353
 30
0.0
 11
-148.0
 21
-105.5342917353
 31
0.0
  0
LINE
  5
B5
  8
0
  6
CENTERX2
 62
     7
 10
35.0
 20
50.5342917353
 30
0.0
 11
84.0
 21
50.5342917353
 31
0.0
  0
LINE
  5
B6
  8
0
  6
CENTERX2
 62
     7
 10
-148.0
 20
50.5342917353
 30
0.0
 11
-35.0
 21
50.5342917353
 31
0.0
  0
CIRCLE
  5
B7
  8
0
  6
CONTINUOUS
 62
     7
 10
-41.0
 20
60.0685834706
 30
0.0
 40
2.099999999999994
  0
CIRCLE
  5
B8
  8
0
  6
CONTINUOUS
 62
     7
 10
-142.0
 20
60.0685834706
 30
0.0
 40
2.099999999999994
  0
CIRCLE
  5
B9
  8
0
  6
CONTINUOUS
 62
     7
 10
41.0
 20
60.0685834706
 30
0.0
 40
2.099999999999994
  0
CIRCLE
  5
BA
  8
0
  6
CONTINUOUS
 62
     7
 10
-142.0
 20
-115.0685834706
 30
0.0
 40
2.099999999999991
  0
CIRCLE
  5
BB
  8
0
  6
CONTINUOUS
 62
     7
 10
78.0
 20
-115.0685834706
 30
0.0
 40
2.099999999999991
  0
ARC
  5
BC
  8
0
  6
CONTINUOUS
 62
     7
 10
-31.0
 20
45.0
 30
0.0
 40
4.0
 50
180.0
 51
270.0
  0
LINE
  5
BD
  8
0
  6
CONTINUOUS
 62
     7
 10
-35.0
 20
60.0685834706
 30
0.0
 11
-35.0
 21
45.0
 31
0.0
  0
ARC
  5
BE
  8
0
  6
CONTINUOUS
 62
     7
 10
-41.0
 20
60.0685834706
 30
0.0
 40
6.0
 50
0.0
 51
90.0
  0
LINE
  5
BF
  8
0
  6
CONTINUOUS
 62
     7
 10
-142.0
 20
66.0685834706
 30
0.0
 11
-41.0
 21
66.0685834706
 31
0.0
  0
ARC
  5
C0
  8
0
  6
CONTINUOUS
 62
     7
 10
-142.0
 20
60.0685834706
 30
0.0
 40
6.000000000000028
 50
90.0
 51
180.0
  0
LINE
  5
C1
  8
0
  6
CONTINUOUS
 62
     7
 10
-148.0
 20
-115.0685834706
 30
0.0
 11
-148.0
 21
60.0685834706
 31
0.0
  0
ARC
  5
C2
  8
0
  6
CONTINUOUS
 62
     7
 10
-142.0
 20
-115.0685834706
 30
0.0
 40
6.000000000000028
 50
180.0
 51
270.0
  0
ARC
  5
C3
  8
0
  6
CONTINUOUS
 62
     7
 10
78.0
 20
-115.0685834706
 30
0.0
 40
6.000000000000021
 50
270.0
 51
0.0
  0
LINE
  5
C4
  8
0
  6
CONTINUOUS
 62
     7
 10
84.0
 20
60.0685834706
 30
0.0
 11
84.0
 21
-115.0685834706
 31
0.0
  0
ARC
  5
C5
  8
0
  6
CONTINUOUS
 62
     7
 10
78.0
 20
60.0685834706
 30
0.0
 40
5.999999999999975
 50
0.0
 51
90.0
  0
ARC
  5
C6
  8
0
  6
CONTINUOUS
 62
     7
 10
41.0
 20
60.0685834706
 30
0.0
 40
6.0
 50
90.0
 51
180.0
  0
LINE
  5
C7
  8
0
  6
CONTINUOUS
 62
     7
 10
35.0
 20
60.0685834706
 30
0.0
 11
35.0
 21
45.0
 31
0.0
  0
ARC
  5
C8
  8
0
  6
CONTINUOUS
 62
     7
 10
31.0
 20
45.0
 30
0.0
 40
4.000000000000014
 50
270.0
 51
0.0
  0
LINE
  5
C9
  8
0
  6
CONTINUOUS
 62
     7
 10
31.0
 20
41.0
 30
0.0
 11
-31.0
 21
41.0
 31
0.0
  0
ARC
  5
CA
  8
0
  6
CONTINUOUS
 62
     7
 10
-47.0
 20
-96.0
 30
0.0
 40
3.000000000000007
 50
180.0
 51
270.0
  0
LINE
  5
CB
  8
0
  6
CONTINUOUS
 62
     7
 10
-50.0
 20
-96.0
 30
0.0
 11
-50.0
 21
-44.0
 31
0.0
  0
ARC
  5
CC
  8
0
  6
CONTINUOUS
 62
     7
 10
-47.0
 20
-44.0
 30
0.0
 40
3.0
 50
90.0
 51
180.0
  0
LINE
  5
CD
  8
0
  6
CONTINUOUS
 62
     7
 10
-47.0
 20
-41.0
 30
0.0
 11
47.0
 21
-41.0
 31
0.0
  0
ARC
  5
CE
  8
0
  6
CONTINUOUS
 62
     7
 10
47.0
 20
-44.0
 30
0.0
 40
3.0
 50
0.0
 51
90.0
  0
LINE
  5
CF
  8
0
  6
CONTINUOUS
 62
     7
 10
50.0
 20
-44.0
 30
0.0
 11
50.0
 21
-96.0
 31
0.0
  0
ARC
  5
D0
  8
0
  6
CONTINUOUS
 62
     7
 10
47.0
 20
-96.0
 30
0.0
 40
3.000000000000007
 50
270.0
 51
0.0
  0
LINE
  5
D1
  8
0
  6
CONTINUOUS
 62
     7
 10
47.0
 20
-99.0
 30
0.0
 11
-47.0
 21
-99.0
 31
0.0
  0
ARC
  5
D2
  8
0
  6
CONTINUOUS
 62
     7
 10
-77.0
 20
-22.0
 30
0.0
 40
4.000000000000014
 50
270.0
 51
0.0
  0
LINE
  5
D3
  8
0
  6
CONTINUOUS
 62
     7
 10
-128.0
 20
-26.0
 30
0.0
 11
-77.0
 21
-26.0
 31
0.0
  0
ARC
  5
D4
  8
0
  6
CONTINUOUS
 62
     7
 10
-128.0
 20
-22.0
 30
0.0
 40
4.000000000000014
 50
180.0
 51
270.0
  0
LINE
  5
D5
  8
0
  6
CONTINUOUS
 62
     7
 10
-132.0
 20
22.0
 30
0.0
 11
-132.0
 21
-22.0
 31
0.0
  0
ARC
  5
D6
  8
0
  6
CONTINUOUS
 62
     7
 10
-128.0
 20
22.0
 30
0.0
 40
4.0
 50
90.0
 51
180.0
  0
LINE
  5
D7
  8
0
  6
CONTINUOUS
 62
     7
 10
-77.0
 20
26.0
 30
0.0
 11
-128.0
 21
26.0
 31
0.0
  0
ARC
  5
D8
  8
0
  6
CONTINUOUS
 62
     7
 10
-77.0
 20
22.0
 30
0.0
 40
4.0
 50
0.0
 51
90.0
  0
LINE
  5
D9
  8
0
  6
CONTINUOUS
 62
     7
 10
-73.0
 20
-22.0
 30
0.0
 11
-73.0
 21
22.0
 31
0.0
  0
ARC
  5
DA
  8
0
  6
CONTINUOUS
 62
     7
 10
-86.0
 20
32.0
 30
0.0
 40
2.560000000000031
 50
90.0
 51
270.0
  0
LINE
  5
DB
  8
0
  6
CONTINUOUS
 62
     7
 10
-79.0
 20
34.56
 30
0.0
 11
-86.0
 21
34.56
 31
0.0
  0
ARC
  5
DC
  8
0
  6
CONTINUOUS
 62
     7
 10
-79.0
 20
32.0
 30
0.0
 40
2.560000000000031
 50
270.0
 51
90.0
  0
LINE
  5
DD
  8
0
  6
CONTINUOUS
 62
     7
 10
-86.0
 20
29.44
 30
0.0
 11
-79.0
 21
29.44
 31
0.0
  0
ARC
  5
DE
  8
0
  6
CONTINUOUS
 62
     7
 10
-126.0
 20
32.0
 30
0.0
 40
2.560000000000031
 50
90.0
 51
270.0
  0
LINE
  5
DF
  8
0
  6
CONTINUOUS
 62
     7
 10
-119.0
 20
34.56
 30
0.0
 11
-126.0
 21
34.56
 31
0.0
  0
ARC
  5
E0
  8
0
  6
CONTINUOUS
 62
     7
 10
-119.0
 20
32.0
 30
0.0
 40
2.560000000000031
 50
270.0
 51
90.0
  0
LINE
  5
E1
  8
0
  6
CONTINUOUS
 62
     7
 10
-126.0
 20
29.44
 30
0.0
 11
-119.0
 21
29.44
 31
0.0
  0
ARC
  5
E2
  8
0
  6
CONTINUOUS
 62
     7
 10
-126.0
 20
-32.0
 30
0.0
 40
2.560000000000002
 50
90.0
 51
270.0
  0
LINE
  5
E3
  8
0
  6
CONTINUOUS
 62
     7
 10
-119.0
 20
-29.44
 30
0.0
 11
-126.0
 21
-29.44
 31
0.0
  0
ARC
  5
E4
  8
0
  6
CONTINUOUS
 62
     7
 10
-119.0
 20
-32.0
 30
0.0
 40
2.560000000000002
 50
270.0
 51
90.0
  0
LINE
  5
E5
  8
0
  6
CONTINUOUS
 62
     7
 10
-126.0
 20
-34.56
 30
0.0
 11
-119.0
 21
-34.56
 31
0.0
  0
ARC
  5
E6
  8
0
  6
CONTINUOUS
 62
     7
 10
-86.0
 20
-32.0
 30
0.0
 40
2.560000000000016
 50
90.0
 51
270.0
  0
LINE
  5
E7
  8
0
  6
CONTINUOUS
 62
     7
 10
-79.0
 20
-29.44
 30
0.0
 11
-86.0
 21
-29.44
 31
0.0
  0
ARC
  5
E8
  8
0
  6
CONTINUOUS
 62
     7
 10
-79.0
 20
-32.0
 30
0.0
 40
2.560000000000016
 50
270.0
 51
90.0
  0
LINE
  5
E9
  8
0
  6
CONTINUOUS
 62
     7
 10
-86.0
 20
-34.56
 30
0.0
 11
-79.0
 21
-34.56
 31
0.0
  0
CIRCLE
  5
EA
  8
0
  6
CONTINUOUS
 62
     7
 10
-30.0
 20
0.0
 30
0.0
 40
1.650000000000034
  0
CIRCLE
  5
EB
  8
0
  6
CONTINUOUS
 62
     7
 10
15.0
 20
25.98076211349999
 30
0.0
 40
1.650000000000006
  0
LINE
  5
EC
  8
0
  6
CONTINUOUS
 62
     7
 10
41.0
 20
66.0685834706
 30
0.0
 11
78.0
 21
66.0685834706
 31
0.0
  0
ARC
  5
ED
  8
0
  6
CONTINUOUS
 62
     7
 10
-15.0
 20
-25.98076211349999
 30
0.0
 40
2.000000000000009
 50
344.9999999999998
 51
284.9999999999998
  0
ARC
  5
EE
  8
0
  6
CONTINUOUS
 62
     7
 10
15.0
 20
-25.98076211349999
 30
0.0
 40
2.000000000000009
 50
344.9999999999998
 51
284.9999999999998
  0
ARC
  5
EF
  8
0
  6
CONTINUOUS
 62
     7
 10
30.0
 20
0.0
 30
0.0
 40
2.000000000000022
 50
345.0000000000002
 51
285.0000000000002
  0
ARC
  5
F0
  8
0
  6
CONTINUOUS
 62
     7
 10
15.0
 20
25.98076211349999
 30
0.0
 40
2.000000000000012
 50
344.9999999999998
 51
284.9999999999998
  0
ARC
  5
F1
  8
0
  6
CONTINUOUS
 62
     7
 10
-15.0
 20
25.98076211349999
 30
0.0
 40
2.000000000000012
 50
344.9999999999998
 51
284.9999999999998
  0
ARC
  5
F2
  8
0
  6
CONTINUOUS
 62
     7
 10
41.0
 20
60.0685834706
 30
0.0
 40
2.500000000000007
 50
345.0000000000002
 51
285.0000000000002
  0
ARC
  5
F3
  8
0
  6
CONTINUOUS
 62
     7
 10
-41.0
 20
60.0685834706
 30
0.0
 40
2.500000000000007
 50
344.9999999999998
 51
284.9999999999998
  0
ARC
  5
F4
  8
0
  6
CONTINUOUS
 62
     7
 10
-142.0
 20
60.0685834706
 30
0.0
 40
2.500000000000007
 50
344.9999999999998
 51
284.9999999999998
  0
ARC
  5
F5
  8
0
  6
CONTINUOUS
 62
     7
 10
78.0
 20
-115.0685834706
 30
0.0
 40
2.499999999999995
 50
345.0000000000001
 51
284.9999999999999
  0
ARC
  5
F6
  8
0
  6
CONTINUOUS
 62
     7
 10
41.0
 20
-115.0685834706
 30
0.0
 40
2.499999999999995
 50
345.0000000000001
 51
284.9999999999999
  0
ARC
  5
F7
  8
0
  6
CONTINUOUS
 62
     7
 10
-41.0
 20
-115.0685834706
 30
0.0
 40
2.500000000000008
 50
344.9999999999998
 51
284.9999999999998
  0
ARC
  5
F8
  8
0
  6
CONTINUOUS
 62
     7
 10
-142.0
 20
-115.0685834706
 30
0.0
 40
2.500000000000008
 50
344.9999999999998
 51
284.9999999999998
  0
TEXT
  5
F9
  8
0
  6
CONTINUOUS
 62
     7
 10
-107.7678533865
 20
52.31033391806667
 30
0.0
 40
3.5
  1
DOWN  90∞  R 3
  0
TEXT
  5
FA
  8
0
  6
CONTINUOUS
 62
     7
 10
-105.3404796925
 20
-103.5807672551333
 30
0.0
 40
3.5
  1
DOWN 90∞  R 3
  0
ENDSEC
  0
EOF
