  0
SECTION
  2
HEADER
  9
$ACADVER
  1
AC1009
  9
$DWGCODEPAGE
  3
ansi_1251
  9
$INSBASE
 10
0.0
 20
0.0
 30
0.0
  9
$EXTMIN
 10
-128.9368238945
 20
-146.1277540729
 30
0.0
  9
$EXTMAX
 10
54.00000000000003
 20
74.27125
 30
0.0
  9
$LIMMIN
 10
0.0
 20
0.0
  9
$LIMMAX
 10
12.0
 20
9.0
  9
$ORTHOMODE
 70
     0
  9
$REGENMODE
 70
     1
  9
$FILLMODE
 70
     1
  9
$QTEXTMODE
 70
     0
  9
$MIRRTEXT
 70
     1
  9
$DRAGMODE
 70
     2
  9
$LTSCALE
 40
1.0
  9
$OSMODE
 70
    37
  9
$ATTMODE
 70
     1
  9
$TEXTSIZE
 40
0.2
  9
$TRACEWID
 40
0.05
  9
$TEXTSTYLE
  7
STANDARD
  9
$CLAYER
  8
DEFAULT
  9
$CELTYPE
  6
BYLAYER
  9
$CECOLOR
 62
   256
  9
$DIMSCALE
 40
1.0
  9
$DIMASZ
 40
0.18
  9
$DIMEXO
 40
0.0625
  9
$DIMDLI
 40
0.38
  9
$DIMRND
 40
0.0
  9
$DIMDLE
 40
0.0
  9
$DIMEXE
 40
0.18
  9
$DIMTP
 40
0.0
  9
$DIMTM
 40
0.0
  9
$DIMTXT
 40
0.18
  9
$DIMCEN
 40
0.09
  9
$DIMTSZ
 40
0.0
  9
$DIMTOL
 70
     0
  9
$DIMLIM
 70
     0
  9
$DIMTIH
 70
     1
  9
$DIMTOH
 70
     1
  9
$DIMSE1
 70
     0
  9
$DIMSE2
 70
     0
  9
$DIMTAD
 70
     0
  9
$DIMZIN
 70
     0
  9
$DIMBLK
  1

  9
$DIMASO
 70
     1
  9
$DIMSHO
 70
     1
  9
$DIMPOST
  1

  9
$DIMAPOST
  1

  9
$DIMALT
 70
     0
  9
$DIMALTD
 70
     2
  9
$DIMALTF
 40
25.4
  9
$DIMLFAC
 40
1.0
  9
$DIMTOFL
 70
     0
  9
$DIMTVP
 40
0.0
  9
$DIMTIX
 70
     0
  9
$DIMSOXD
 70
     0
  9
$DIMSAH
 70
     0
  9
$DIMBLK1
  1

  9
$DIMBLK2
  1

  9
$DIMSTYLE
  2
STANDARD
  9
$DIMCLRD
 70
     0
  9
$DIMCLRE
 70
     0
  9
$DIMCLRT
 70
     0
  9
$DIMTFAC
 40
1.0
  9
$DIMGAP
 40
0.09
  9
$LUNITS
 70
     2
  9
$LUPREC
 70
     2
  9
$SKETCHINC
 40
0.1
  9
$FILLETRAD
 40
0.5
  9
$AUNITS
 70
     0
  9
$AUPREC
 70
     0
  9
$MENU
  1
.
  9
$ELEVATION
 40
0.0
  9
$PELEVATION
 40
0.0
  9
$THICKNESS
 40
0.0
  9
$LIMCHECK
 70
     0
  9
$CHAMFERA
 40
0.0
  9
$CHAMFERB
 40
0.0
  9
$SKPOLY
 70
     0
  9
$TDCREATE
 40
2459298.579226516
  9
$TDUPDATE
 40
2459298.579238773
  9
$TDINDWG
 40
0.0000000116
  9
$TDUSRTIMER
 40
0.0000000116
  9
$USRTIMER
 70
     1
  9
$ANGBASE
 50
0.0
  9
$ANGDIR
 70
     0
  9
$PDMODE
 70
     0
  9
$PDSIZE
 40
0.0
  9
$PLINEWID
 40
0.0
  9
$COORDS
 70
     1
  9
$SPLFRAME
 70
     0
  9
$SPLINETYPE
 70
     6
  9
$SPLINESEGS
 70
     8
  9
$ATTDIA
 70
     0
  9
$ATTREQ
 70
     1
  9
$HANDLING
 70
     1
  9
$HANDSEED
  5
DD
  9
$SURFTAB1
 70
     6
  9
$SURFTAB2
 70
     6
  9
$SURFTYPE
 70
     6
  9
$SURFU
 70
     6
  9
$SURFV
 70
     6
  9
$UCSNAME
  2

  9
$UCSORG
 10
0.0
 20
0.0
 30
0.0
  9
$UCSXDIR
 10
1.0
 20
0.0
 30
0.0
  9
$UCSYDIR
 10
0.0
 20
1.0
 30
0.0
  9
$PUCSNAME
  2

  9
$PUCSORG
 10
0.0
 20
0.0
 30
0.0
  9
$PUCSXDIR
 10
1.0
 20
0.0
 30
0.0
  9
$PUCSYDIR
 10
0.0
 20
1.0
 30
0.0
  9
$USERI1
 70
     0
  9
$USERI2
 70
     0
  9
$USERI3
 70
     0
  9
$USERI4
 70
     0
  9
$USERI5
 70
     0
  9
$USERR1
 40
0.0
  9
$USERR2
 40
0.0
  9
$USERR3
 40
0.0
  9
$USERR4
 40
0.0
  9
$USERR5
 40
0.0
  9
$WORLDVIEW
 70
     1
  9
$SHADEDGE
 70
     3
  9
$SHADEDIF
 70
    70
  9
$TILEMODE
 70
     1
  9
$MAXACTVP
 70
    64
  9
$PLIMCHECK
 70
     0
  9
$PEXTMIN
 10
1.000000000000000E+20
 20
1.000000000000000E+20
 30
1.000000000000000E+20
  9
$PEXTMAX
 10
-1.000000000000000E+20
 20
-1.000000000000000E+20
 30
-1.000000000000000E+20
  9
$PLIMMIN
 10
0.0
 20
0.0
  9
$PLIMMAX
 10
12.0
 20
9.0
  9
$UNITMODE
 70
     0
  9
$VISRETAIN
 70
     1
  9
$PLINEGEN
 70
     0
  9
$PSLTSCALE
 70
     1
  0
ENDSEC
  0
SECTION
  2
TABLES
  0
TABLE
  2
VPORT
 70
     1
  0
VPORT
  2
*ACTIVE
 70
     0
 10
0.0
 20
0.0
 11
1.0
 21
1.0
 12
-37.46841194724999
 22
-35.59813840008636
 13
0.0
 23
0.0
 14
0.5
 24
0.5
 15
0.5
 25
0.5
 16
0.0
 26
0.0
 36
1.0
 17
0.0
 27
0.0
 37
0.0
 40
225.4804159725398
 41
0.8275466388846587
 42
50.0
 43
0.0
 44
0.0
 50
0.0
 51
0.0
 71
     0
 72
   100
 73
     1
 74
     3
 75
     0
 76
     0
 77
     0
 78
     0
  0
ENDTAB
  0
TABLE
  2
LTYPE
 70
     2
  0
LTYPE
  2
CONTINUOUS
 70
     0
  3
Solid line
 72
    65
 73
     0
 40
0.0
  0
LTYPE
  2
CENTERX2
 70
     0
  3

 72
    65
 73
     4
 40
20.32
 49
12.7
 49
-2.54
 49
2.54
 49
-2.54
  0
ENDTAB
  0
TABLE
  2
LAYER
 70
     3
  0
LAYER
  2
0
 70
     0
 62
     7
  6
CONTINUOUS
  0
LAYER
  2
DEFAULT
 70
     0
 62
     7
  6
CONTINUOUS
  0
LAYER
  2
DEFPOINTS
 70
     0
 62
     7
  6
CONTINUOUS
  0
ENDTAB
  0
TABLE
  2
STYLE
 70
     2
  0
STYLE
  2
STANDARD
 70
     0
 40
0.0
 41
1.0
 50
0.0
 71
     0
 42
0.2
  3
txt
  4

  0
STYLE
  2
DEFAULT
 70
     0
 40
0.0
 41
1.0
 50
0.0
 71
     0
 42
0.2
  3

  4

  0
ENDTAB
  0
TABLE
  2
VIEW
 70
     0
  0
ENDTAB
  0
TABLE
  2
UCS
 70
     0
  0
ENDTAB
  0
TABLE
  2
APPID
 70
     1
  0
APPID
  2
ACAD
 70
     0
  0
ENDTAB
  0
TABLE
  2
DIMSTYLE
 70
     2
  0
DIMSTYLE
  2
STANDARD
 70
     0
  3

  4

  5

  6

  7

 40
1.0
 41
0.18
 42
0.0625
 43
0.38
 44
0.18
 45
0.0
 46
0.0
 47
0.0
 48
0.0
140
0.18
141
0.09
142
0.0
143
25.4
144
1.0
145
0.0
146
1.0
147
0.09
 71
     0
 72
     0
 73
     1
 74
     1
 75
     0
 76
     0
 77
     0
 78
     0
170
     0
171
     2
172
     0
173
     0
174
     0
175
     0
176
     0
177
     0
178
     0
  0
DIMSTYLE
  2
ISO-25
 70
     0
  3

  4

  5

  6

  7

 40
1.0
 41
2.5
 42
0.625
 43
0.38
 44
1.25
 45
0.0
 46
0.0
 47
0.0
 48
0.0
140
2.5
141
2.5
142
0.0
143
25.4
144
1.0
145
0.0
146
1.0
147
0.625
 71
     0
 72
     0
 73
     0
 74
     1
 75
     0
 76
     0
 77
     1
 78
     1
170
     0
171
     2
172
     1
173
     0
174
     1
175
     0
176
     0
177
     0
178
     0
  0
ENDTAB
  0
ENDSEC
  0
SECTION
  2
BLOCKS
  0
BLOCK
  8
0
  2
$MODEL_SPACE
 70
     0
 10
0.0
 20
0.0
 30
0.0
  3
$MODEL_SPACE
  1

  0
ENDBLK
  5
21
  8
0
  0
BLOCK
 67
     1
  8
0
  2
$PAPER_SPACE
 70
     0
 10
0.0
 20
0.0
 30
0.0
  3
$PAPER_SPACE
  1

  0
ENDBLK
  5
1D
 67
     1
  8
0
  0
BLOCK
  8
0
  2
*D1
 70
     1
 10
0.0
 20
0.0
 30
0.0
  3
*D1
  1

  0
LINE
  5
76
  8
DEFAULT
 62
     0
 10
-48.62500000000001
 20
-115.0685834706
 30
0.0
 11
-59.0
 21
-115.0685834706
 31
0.0
  0
LINE
  5
77
  8
DEFAULT
 62
     0
 10
-59.0
 20
-115.0685834706
 30
0.0
 11
-64.0
 21
-129.0
 31
0.0
  0
LINE
  5
78
  8
DEFAULT
 62
     0
 10
-64.0
 20
-129.0
 30
0.0
 11
-69.0
 21
-129.0
 31
0.0
  0
TEXT
  5
79
  8
DEFAULT
  6
CONTINUOUS
 62
     0
 10
-79.9575
 20
-130.22875
 30
0.0
 40
2.5
  1
4 x M5
  7
DEFAULT
  0
POINT
  5
7A
  8
DEFPOINTS
 62
     0
 10
-48.00000000000001
 20
-115.0685834706
 30
0.0
  0
POINT
  5
7B
  8
DEFPOINTS
 62
     0
 10
-69.0
 20
-129.0
 30
0.0
  0
POINT
  5
7C
  8
DEFPOINTS
 62
     0
 10
0.0
 20
0.0
 30
0.0
  0
ENDBLK
  5
75
  8
0
  0
BLOCK
  8
0
  2
*D2
 70
     1
 10
0.0
 20
0.0
 30
0.0
  3
*D2
  1

  0
LINE
  5
81
  8
DEFAULT
 62
     0
 10
-48.62500000000001
 20
60.0685834706
 30
0.0
 11
-59.0
 21
60.0685834706
 31
0.0
  0
LINE
  5
82
  8
DEFAULT
 62
     0
 10
-59.0
 20
60.0685834706
 30
0.0
 11
-64.0
 21
73.0
 31
0.0
  0
LINE
  5
83
  8
DEFAULT
 62
     0
 10
-64.0
 20
73.0
 30
0.0
 11
-69.0
 21
73.0
 31
0.0
  0
TEXT
  5
84
  8
DEFAULT
  6
CONTINUOUS
 62
     0
 10
-79.9575
 20
71.77125
 30
0.0
 40
2.5
  1
4 x M5
  7
DEFAULT
  0
POINT
  5
85
  8
DEFPOINTS
 62
     0
 10
-48.00000000000001
 20
60.0685834706
 30
0.0
  0
POINT
  5
86
  8
DEFPOINTS
 62
     0
 10
-69.0
 20
73.0
 30
0.0
  0
POINT
  5
87
  8
DEFPOINTS
 62
     0
 10
0.0
 20
0.0
 30
0.0
  0
ENDBLK
  5
80
  8
0
  0
BLOCK
  8
0
  2
*D3
 70
     1
 10
0.0
 20
0.0
 30
0.0
  3
*D3
  1

  0
LINE
  5
CF
  8
DEFAULT
 62
     0
 10
-17.27500000000001
 20
25.98076211360001
 30
0.0
 11
-21.65000000000001
 21
25.98076211360001
 31
0.0
  0
LINE
  5
D0
  8
DEFAULT
 62
     0
 10
-21.65000000000001
 20
25.98076211360001
 30
0.0
 11
-25.93682389450001
 21
35.87224592710001
 31
0.0
  0
LINE
  5
D1
  8
DEFAULT
 62
     0
 10
-25.93682389450001
 20
35.87224592710001
 30
0.0
 11
-30.93682389450001
 21
35.87224592710001
 31
0.0
  0
TEXT
  5
D2
  8
DEFAULT
  6
CONTINUOUS
 62
     0
 10
-41.86682389450001
 20
34.64349592710001
 30
0.0
 40
2.5
  1
6 x M4
  7
DEFAULT
  0
POINT
  5
D3
  8
DEFPOINTS
 62
     0
 10
-16.65000000000001
 20
25.98076211360001
 30
0.0
  0
POINT
  5
D4
  8
DEFPOINTS
 62
     0
 10
-30.93682389450001
 20
35.87224592710001
 30
0.0
  0
POINT
  5
D5
  8
DEFPOINTS
 62
     0
 10
-128.9368238945
 20
-146.1277540729
 30
0.0
  0
ENDBLK
  5
CE
  8
0
  0
ENDSEC
  0
SECTION
  2
ENTITIES
  0
DIMENSION
  5
71
  8
DEFAULT
  2
*D1
 10
0.0
 20
0.0
 30
0.0
 11
-74.76875
 21
-129.0
 31
0.0
 70
    38
  1
4 x M5
  3
ISO-25
 13
-48.00000000000001
 23
-115.0685834706
 33
0.0
 14
-69.0
 24
-129.0
 34
0.0
1001
ACAD
1000
DSTYLE
1002
{
1070
    77
1070
     0
1002
}
  0
DIMENSION
  5
7D
  8
DEFAULT
  2
*D2
 10
0.0
 20
0.0
 30
0.0
 11
-74.76875
 21
73.0
 31
0.0
 70
    38
  1
4 x M5
  3
ISO-25
 13
-48.00000000000001
 23
60.0685834706
 33
0.0
 14
-69.0
 24
73.0
 34
0.0
1001
ACAD
1000
DSTYLE
1002
{
1070
    77
1070
     0
1002
}
  0
LINE
  5
89
  8
0
  6
CENTERX2
 62
     7
 10
26.0
 20
-105.5342917353
 30
0.0
 11
54.0
 21
-105.5342917353
 31
0.0
  0
LINE
  5
8A
  8
0
  6
CENTERX2
 62
     7
 10
-54.00000000000001
 20
-105.5342917353
 30
0.0
 11
-26.00000000000001
 21
-105.5342917353
 31
0.0
  0
LINE
  5
8B
  8
0
  6
CENTERX2
 62
     7
 10
54.0
 20
50.5342917353
 30
0.0
 11
-54.00000000000001
 21
50.5342917353
 31
0.0
  0
CIRCLE
  5
8C
  8
0
  6
CONTINUOUS
 62
     7
 10
48.0
 20
60.0685834706
 30
0.0
 40
2.099999999999994
  0
CIRCLE
  5
8D
  8
0
  6
CONTINUOUS
 62
     7
 10
32.0
 20
60.0685834706
 30
0.0
 40
2.099999999999994
  0
CIRCLE
  5
8E
  8
0
  6
CONTINUOUS
 62
     7
 10
-48.00000000000001
 20
60.0685834706
 30
0.0
 40
2.099999999999994
  0
CIRCLE
  5
8F
  8
0
  6
CONTINUOUS
 62
     7
 10
-32.00000000000001
 20
60.0685834706
 30
0.0
 40
2.099999999999994
  0
CIRCLE
  5
90
  8
0
  6
CONTINUOUS
 62
     7
 10
-48.00000000000001
 20
-115.0685834706
 30
0.0
 40
2.099999999999991
  0
CIRCLE
  5
91
  8
0
  6
CONTINUOUS
 62
     7
 10
-32.00000000000001
 20
-115.0685834706
 30
0.0
 40
2.099999999999991
  0
CIRCLE
  5
92
  8
0
  6
CONTINUOUS
 62
     7
 10
32.0
 20
-115.0685834706
 30
0.0
 40
2.099999999999991
  0
CIRCLE
  5
93
  8
0
  6
CONTINUOUS
 62
     7
 10
48.0
 20
-115.0685834706
 30
0.0
 40
2.099999999999977
  0
CIRCLE
  5
94
  8
0
  6
CONTINUOUS
 62
     7
 10
-15.00000000000001
 20
25.98076211360001
 30
0.0
 40
1.649999999999991
  0
CIRCLE
  5
95
  8
0
  6
CONTINUOUS
 62
     7
 10
15.0
 20
25.98076211360001
 30
0.0
 40
1.649999999999977
  0
CIRCLE
  5
96
  8
0
  6
CONTINUOUS
 62
     7
 10
30.0
 20
0.0
 30
0.0
 40
1.649999999999977
  0
CIRCLE
  5
97
  8
0
  6
CONTINUOUS
 62
     7
 10
-15.00000000000001
 20
-25.98076211349999
 30
0.0
 40
1.649999999999991
  0
ARC
  5
98
  8
0
  6
CONTINUOUS
 62
     7
 10
-48.00000000000001
 20
60.0685834706
 30
0.0
 40
6.0
 50
90.0
 51
180.0
  0
LINE
  5
99
  8
0
  6
CONTINUOUS
 62
     7
 10
48.0
 20
66.0685834706
 30
0.0
 11
-48.00000000000001
 21
66.0685834706
 31
0.0
  0
ARC
  5
9A
  8
0
  6
CONTINUOUS
 62
     7
 10
48.0
 20
60.0685834706
 30
0.0
 40
6.0
 50
0.0
 51
90.0
  0
LINE
  5
9B
  8
0
  6
CONTINUOUS
 62
     7
 10
54.0
 20
-115.0685834706
 30
0.0
 11
54.0
 21
60.0685834706
 31
0.0
  0
ARC
  5
9C
  8
0
  6
CONTINUOUS
 62
     7
 10
48.0
 20
-115.0685834706
 30
0.0
 40
6.000000000000028
 50
270.0
 51
0.0
  0
LINE
  5
9D
  8
0
  6
CONTINUOUS
 62
     7
 10
32.0
 20
-121.0685834706
 30
0.0
 11
48.0
 21
-121.0685834706
 31
0.0
  0
ARC
  5
9E
  8
0
  6
CONTINUOUS
 62
     7
 10
32.0
 20
-115.0685834706
 30
0.0
 40
6.000000000000004
 50
180.0
 51
270.0
  0
LINE
  5
9F
  8
0
  6
CONTINUOUS
 62
     7
 10
26.0
 20
-115.0685834706
 30
0.0
 11
26.0
 21
-45.99999999999999
 31
0.0
  0
ARC
  5
A0
  8
0
  6
CONTINUOUS
 62
     7
 10
23.0
 20
-45.99999999999999
 30
0.0
 40
3.0
 50
0.0
 51
90.0
  0
LINE
  5
A1
  8
0
  6
CONTINUOUS
 62
     7
 10
23.0
 20
-42.99999999999999
 30
0.0
 11
-23.00000000000001
 21
-42.99999999999999
 31
0.0
  0
ARC
  5
A2
  8
0
  6
CONTINUOUS
 62
     7
 10
-23.00000000000001
 20
-45.99999999999999
 30
0.0
 40
3.0
 50
90.0
 51
180.0
  0
LINE
  5
A3
  8
0
  6
CONTINUOUS
 62
     7
 10
-26.00000000000001
 20
-45.99999999999999
 30
0.0
 11
-26.00000000000001
 21
-115.0685834706
 31
0.0
  0
ARC
  5
A4
  8
0
  6
CONTINUOUS
 62
     7
 10
-32.00000000000001
 20
-115.0685834706
 30
0.0
 40
6.000000000000004
 50
270.0
 51
0.0
  0
LINE
  5
A5
  8
0
  6
CONTINUOUS
 62
     7
 10
-48.00000000000001
 20
-121.0685834706
 30
0.0
 11
-32.00000000000001
 21
-121.0685834706
 31
0.0
  0
ARC
  5
A6
  8
0
  6
CONTINUOUS
 62
     7
 10
-48.00000000000001
 20
-115.0685834706
 30
0.0
 40
6.000000000000004
 50
180.0
 51
270.0
  0
LINE
  5
A7
  8
0
  6
CONTINUOUS
 62
     7
 10
-54.00000000000001
 20
60.0685834706
 30
0.0
 11
-54.00000000000001
 21
-115.0685834706
 31
0.0
  0
CIRCLE
  5
A8
  8
0
  6
CONTINUOUS
 62
     7
 10
0.0
 20
0.0
 30
0.0
 40
25.0
  0
ARC
  5
A9
  8
0
  6
CONTINUOUS
 62
     7
 10
-32.00000000000001
 20
-89.0
 30
0.0
 40
2.600000000000009
 50
0.0
 51
180.0
  0
LINE
  5
AA
  8
0
  6
CONTINUOUS
 62
     7
 10
-34.60000000000001
 20
-89.0
 30
0.0
 11
-34.60000000000001
 21
-96.0
 31
0.0
  0
ARC
  5
AB
  8
0
  6
CONTINUOUS
 62
     7
 10
-32.00000000000001
 20
-96.0
 30
0.0
 40
2.600000000000009
 50
180.0
 51
0.0
  0
LINE
  5
AC
  8
0
  6
CONTINUOUS
 62
     7
 10
-29.40000000000001
 20
-96.0
 30
0.0
 11
-29.40000000000001
 21
-89.0
 31
0.0
  0
ARC
  5
AD
  8
0
  6
CONTINUOUS
 62
     7
 10
32.0
 20
-96.0
 30
0.0
 40
2.600000000000023
 50
180.0
 51
0.0
  0
LINE
  5
AE
  8
0
  6
CONTINUOUS
 62
     7
 10
34.59999999999999
 20
-96.0
 30
0.0
 11
34.59999999999999
 21
-89.0
 31
0.0
  0
ARC
  5
AF
  8
0
  6
CONTINUOUS
 62
     7
 10
32.0
 20
-89.0
 30
0.0
 40
2.599999999999994
 50
0.0
 51
180.0
  0
LINE
  5
B0
  8
0
  6
CONTINUOUS
 62
     7
 10
29.39999999999998
 20
-89.0
 30
0.0
 11
29.39999999999998
 21
-96.0
 31
0.0
  0
ARC
  5
B1
  8
0
  6
CONTINUOUS
 62
     7
 10
32.0
 20
-55.99999999999999
 30
0.0
 40
2.600000000000051
 50
180.0
 51
0.0
  0
LINE
  5
B2
  8
0
  6
CONTINUOUS
 62
     7
 10
34.59999999999999
 20
-55.99999999999999
 30
0.0
 11
34.59999999999999
 21
-48.99999999999999
 31
0.0
  0
ARC
  5
B3
  8
0
  6
CONTINUOUS
 62
     7
 10
32.0
 20
-48.99999999999999
 30
0.0
 40
2.600000000000023
 50
0.0
 51
180.0
  0
LINE
  5
B4
  8
0
  6
CONTINUOUS
 62
     7
 10
29.39999999999998
 20
-48.99999999999999
 30
0.0
 11
29.39999999999998
 21
-55.99999999999999
 31
0.0
  0
ARC
  5
B5
  8
0
  6
CONTINUOUS
 62
     7
 10
-32.00000000000001
 20
-55.99999999999999
 30
0.0
 40
2.599999999999994
 50
180.0
 51
0.0
  0
LINE
  5
B6
  8
0
  6
CONTINUOUS
 62
     7
 10
-29.40000000000001
 20
-55.99999999999999
 30
0.0
 11
-29.40000000000001
 21
-48.99999999999999
 31
0.0
  0
ARC
  5
B7
  8
0
  6
CONTINUOUS
 62
     7
 10
-32.00000000000001
 20
-48.99999999999999
 30
0.0
 40
2.599999999999994
 50
0.0
 51
180.0
  0
LINE
  5
B8
  8
0
  6
CONTINUOUS
 62
     7
 10
-34.60000000000001
 20
-48.99999999999999
 30
0.0
 11
-34.60000000000001
 21
-55.99999999999999
 31
0.0
  0
CIRCLE
  5
B9
  8
0
  6
CONTINUOUS
 62
     7
 10
-30.00000000000001
 20
0.0
 30
0.0
 40
1.649999999999977
  0
CIRCLE
  5
BA
  8
0
  6
CONTINUOUS
 62
     7
 10
15.0
 20
-25.98076211349999
 30
0.0
 40
1.650000000000006
  0
ARC
  5
BB
  8
0
  6
CONTINUOUS
 62
     7
 10
-30.00000000000001
 20
0.0
 30
0.0
 40
2.000000000000012
 50
255.0000000000002
 51
195.0000000000001
  0
ARC
  5
BC
  8
0
  6
CONTINUOUS
 62
     7
 10
-15.00000000000001
 20
-25.98076211349999
 30
0.0
 40
2.000000000000009
 50
255.0000000000001
 51
195.0000000000001
  0
ARC
  5
BD
  8
0
  6
CONTINUOUS
 62
     7
 10
15.0
 20
-25.98076211349999
 30
0.0
 40
2.000000000000012
 50
254.9999999999997
 51
194.9999999999997
  0
ARC
  5
BE
  8
0
  6
CONTINUOUS
 62
     7
 10
30.0
 20
0.0
 30
0.0
 40
2.000000000000026
 50
254.9999999999998
 51
194.9999999999998
  0
ARC
  5
BF
  8
0
  6
CONTINUOUS
 62
     7
 10
15.0
 20
25.98076211360001
 30
0.0
 40
2.000000000000019
 50
254.9999999999998
 51
194.9999999999998
  0
ARC
  5
C0
  8
0
  6
CONTINUOUS
 62
     7
 10
-15.00000000000001
 20
25.98076211360001
 30
0.0
 40
2.000000000000022
 50
254.9999999999999
 51
194.9999999999997
  0
ARC
  5
C1
  8
0
  6
CONTINUOUS
 62
     7
 10
-48.00000000000001
 20
60.0685834706
 30
0.0
 40
2.500000000000011
 50
254.9999999999999
 51
194.9999999999998
  0
ARC
  5
C2
  8
0
  6
CONTINUOUS
 62
     7
 10
-32.00000000000001
 20
60.0685834706
 30
0.0
 40
2.500000000000011
 50
254.9999999999999
 51
194.9999999999998
  0
ARC
  5
C3
  8
0
  6
CONTINUOUS
 62
     7
 10
32.0
 20
60.0685834706
 30
0.0
 40
2.500000000000007
 50
255.0000000000002
 51
195.0000000000001
  0
ARC
  5
C4
  8
0
  6
CONTINUOUS
 62
     7
 10
48.0
 20
60.0685834706
 30
0.0
 40
2.500000000000007
 50
255.0000000000002
 51
195.0000000000001
  0
ARC
  5
C5
  8
0
  6
CONTINUOUS
 62
     7
 10
-48.00000000000001
 20
-115.0685834706
 30
0.0
 40
2.499999999999996
 50
255.0000000000001
 51
194.9999999999999
  0
ARC
  5
C6
  8
0
  6
CONTINUOUS
 62
     7
 10
-32.00000000000001
 20
-115.0685834706
 30
0.0
 40
2.500000000000011
 50
254.9999999999999
 51
194.9999999999998
  0
ARC
  5
C7
  8
0
  6
CONTINUOUS
 62
     7
 10
32.0
 20
-115.0685834706
 30
0.0
 40
2.500000000000008
 50
255.0000000000002
 51
195.0000000000001
  0
ARC
  5
C8
  8
0
  6
CONTINUOUS
 62
     7
 10
48.0
 20
-115.0685834706
 30
0.0
 40
2.500000000000008
 50
255.0000000000002
 51
195.0000000000001
  0
TEXT
  5
C9
  8
0
  6
CONTINUOUS
 62
     7
 10
-18.33956185630001
 20
51.52480743460001
 30
0.0
 40
3.5
  1
DOWN 90°  R 3
  0
TEXT
  5
CA
  8
0
  6
CONTINUOUS
 62
     7
 10
-18.33956185630001
 20
-104.4661965169
 30
0.0
 40
3.5
  1
DOWN 90°  R 3
  0
DIMENSION
  5
CB
  8
DEFAULT
  2
*D3
 10
-128.9368238945
 20
-146.1277540729
 30
0.0
 11
-36.64932389450001
 21
35.87224592710001
 31
0.0
 70
    38
  1
6 x M4
  3
ISO-25
 13
-16.65000000000001
 23
25.98076211360001
 33
0.0
 14
-30.93682389450001
 24
35.87224592710001
 34
0.0
1001
ACAD
1000
DSTYLE
1002
{
1070
    77
1070
     0
1002
}
  0
ENDSEC
  0
EOF
